<svg xmlns="http://www.w3.org/2000/svg" xmlns:xlink="http://www.w3.org/1999/xlink" width="1024" zoomAndPan="magnify" viewBox="0 0 768 767.999994" height="1024" preserveAspectRatio="xMidYMid meet" version="1.0"><defs><g/><clipPath id="b84f359f34"><path d="M 192.492188 187.640625 L 586.445312 187.640625 L 586.445312 581.59375 L 192.492188 581.59375 Z M 192.492188 187.640625 " clip-rule="nonzero"/></clipPath><clipPath id="eb31e10190"><path d="M 76.800781 76.800781 L 692.4375 76.800781 L 692.4375 692.4375 L 76.800781 692.4375 Z M 76.800781 76.800781 " clip-rule="nonzero"/></clipPath><clipPath id="fbb8726df2"><path d="M 338.550781 291.75 L 398.464844 291.75 L 398.464844 472.480469 L 338.550781 472.480469 Z M 338.550781 291.75 " clip-rule="nonzero"/></clipPath><clipPath id="5854e5a8c6"><path d="M 429.035156 311.050781 L 440.015625 311.050781 L 440.015625 405.765625 L 429.035156 405.765625 Z M 429.035156 311.050781 " clip-rule="nonzero"/></clipPath></defs><rect x="-76.8" width="921.6" fill="#ffffff" y="-76.799999" height="921.599993" fill-opacity="1"/><rect x="-76.8" width="921.6" fill="#ffffff" y="-76.799999" height="921.599993" fill-opacity="1"/><rect x="-76.8" width="921.6" fill="#484848" y="-76.799999" height="921.599993" fill-opacity="1"/><g clip-path="url(#b84f359f34)"><path fill="#ece8d9" d="M 528.773438 245.316406 C 491.582031 208.125 442.101562 187.640625 389.46875 187.640625 C 280.898438 187.640625 192.492188 275.964844 192.492188 384.617188 C 192.492188 493.269531 280.816406 581.59375 389.46875 581.59375 C 498.121094 581.59375 586.445312 493.269531 586.445312 384.617188 C 586.445312 331.984375 565.960938 282.503906 528.773438 245.316406 Z M 528.773438 245.316406 " fill-opacity="1" fill-rule="nonzero"/></g><g clip-path="url(#eb31e10190)"><path fill="#ece8d9" d="M 384.617188 692.4375 C 214.941406 692.4375 76.800781 554.296875 76.800781 384.617188 C 76.800781 214.941406 214.941406 76.800781 384.617188 76.800781 C 554.296875 76.800781 692.4375 214.941406 692.4375 384.617188 C 692.4375 554.296875 554.296875 692.4375 384.617188 692.4375 Z M 384.617188 81.347656 C 217.367188 81.347656 81.347656 217.367188 81.347656 384.617188 C 81.347656 551.871094 217.367188 687.890625 384.617188 687.890625 C 551.871094 687.890625 687.890625 551.871094 687.890625 384.617188 C 687.890625 217.367188 551.871094 81.347656 384.617188 81.347656 Z M 384.617188 81.347656 " fill-opacity="1" fill-rule="nonzero"/></g><g fill="#ece8d9" fill-opacity="1"><g transform="translate(129.209669, 393.792998)"><g><path d="M 14.46875 8.671875 C 14.550781 10.367188 14.582031 11.546875 14.5625 12.203125 C 14.519531 13.085938 14.414062 13.820312 14.25 14.40625 C 14.09375 15 13.828125 15.507812 13.453125 15.9375 C 13.085938 16.375 12.585938 16.753906 11.953125 17.078125 C 11.328125 17.410156 10.492188 17.738281 9.453125 18.0625 L 9.46875 18.546875 C 10.382812 18.472656 11.28125 18.398438 12.15625 18.328125 C 13.03125 18.265625 13.910156 18.210938 14.796875 18.171875 C 16.648438 18.078125 18.476562 18.03125 20.28125 18.03125 L 20.265625 17.546875 C 18.679688 17.078125 17.535156 16.40625 16.828125 15.53125 C 16.128906 14.664062 15.742188 13.441406 15.671875 11.859375 L 15.515625 8.625 L 25.515625 8.15625 C 25.535156 8.507812 25.570312 9.007812 25.625 9.65625 C 25.6875 10.25 25.722656 10.691406 25.734375 10.984375 C 25.816406 12.734375 25.832031 14.140625 25.78125 15.203125 C 25.738281 16.273438 25.546875 17.269531 25.203125 18.1875 C 24.859375 19.101562 24.273438 19.910156 23.453125 20.609375 C 22.640625 21.304688 21.492188 21.90625 20.015625 22.40625 L 20.046875 23.046875 C 21.859375 22.847656 23.234375 22.726562 24.171875 22.6875 C 24.847656 22.65625 25.921875 22.65625 27.390625 22.6875 L 27.5 22.6875 L 27.421875 21.796875 C 27.328125 20.398438 27.242188 19.3125 27.171875 18.53125 C 27.109375 17.75 27.054688 16.832031 27.015625 15.78125 L 26.59375 7.03125 C 26.550781 6.125 26.515625 5.003906 26.484375 3.671875 C 26.460938 2.785156 26.445312 2.078125 26.4375 1.546875 C 26.425781 1.023438 26.425781 0.59375 26.4375 0.25 L 25.953125 0.28125 C 25.921875 1.25 25.804688 2.019531 25.609375 2.59375 C 25.421875 3.164062 25.113281 3.597656 24.6875 3.890625 C 24.257812 4.179688 23.695312 4.390625 23 4.515625 C 22.300781 4.640625 21.335938 4.734375 20.109375 4.796875 L 6.640625 5.4375 C 5.398438 5.488281 4.429688 5.484375 3.734375 5.421875 C 3.035156 5.367188 2.460938 5.21875 2.015625 4.96875 C 1.566406 4.71875 1.210938 4.316406 0.953125 3.765625 C 0.703125 3.210938 0.519531 2.453125 0.40625 1.484375 L -0.078125 1.5 C 0.148438 4.132812 0.289062 6.101562 0.34375 7.40625 C 0.425781 8.96875 0.484375 11.21875 0.515625 14.15625 L 0.515625 14.265625 L 1 14.25 C 1.1875 13.007812 1.359375 12.085938 1.515625 11.484375 C 1.671875 10.878906 1.898438 10.40625 2.203125 10.0625 C 2.515625 9.726562 2.960938 9.492188 3.546875 9.359375 C 4.140625 9.222656 5 9.128906 6.125 9.078125 Z M 14.46875 8.671875 "/></g></g></g><g fill="#ece8d9" fill-opacity="1"><g transform="translate(135.587872, 451.201528)"><g><path d="M 16.015625 13.28125 L 9.625 17.875 C 9.550781 17.914062 9.460938 17.988281 9.359375 18.09375 C 9.015625 18.351562 8.738281 18.507812 8.53125 18.5625 C 7.863281 18.757812 7.207031 18.566406 6.5625 17.984375 C 5.914062 17.410156 5.347656 16.570312 4.859375 15.46875 L 4.390625 15.609375 L 4.6875 16.53125 C 5.007812 17.425781 5.257812 18.160156 5.4375 18.734375 C 5.625 19.316406 5.875 20.132812 6.1875 21.1875 C 6.601562 22.613281 7.140625 24.644531 7.796875 27.28125 L 7.828125 27.40625 L 8.296875 27.265625 C 8.097656 26.003906 8.175781 24.960938 8.53125 24.140625 C 8.894531 23.316406 9.550781 22.5625 10.5 21.875 L 30.328125 7.328125 C 30.179688 7.148438 30 6.9375 29.78125 6.6875 C 29.03125 5.75 28.492188 4.957031 28.171875 4.3125 C 27.972656 4.507812 27.765625 4.6875 27.546875 4.84375 C 27.335938 5.007812 27.164062 5.113281 27.03125 5.15625 C 26.875 5.195312 26.570312 5.1875 26.125 5.125 C 26.070312 5.132812 26.035156 5.128906 26.015625 5.109375 L 7.578125 3.21875 L 6.921875 3.15625 C 5.179688 2.957031 3.804688 2.664062 2.796875 2.28125 C 1.796875 1.90625 0.960938 1.085938 0.296875 -0.171875 L -0.171875 -0.03125 L 0.046875 0.609375 C 0.628906 2.316406 1.054688 3.625 1.328125 4.53125 C 1.628906 5.59375 2.03125 7.171875 2.53125 9.265625 L 3 9.125 C 2.96875 8.8125 2.953125 8.425781 2.953125 7.96875 C 2.960938 7.507812 3.023438 7.054688 3.140625 6.609375 C 3.265625 6.160156 3.453125 5.753906 3.703125 5.390625 C 3.960938 5.035156 4.316406 4.789062 4.765625 4.65625 C 4.972656 4.601562 5.273438 4.59375 5.671875 4.625 L 5.90625 4.671875 L 13.65625 5.171875 Z M 17.0625 12.515625 L 14.9375 5.21875 L 25.890625 6.140625 Z M 17.0625 12.515625 "/></g></g></g><g fill="#ece8d9" fill-opacity="1"><g transform="translate(156.426661, 508.165711)"><g><path d="M 26.359375 8.4375 C 27.765625 7.394531 29.726562 6.15625 32.25 4.71875 C 31.914062 4.125 31.632812 3.535156 31.40625 2.953125 C 31.1875 2.367188 30.957031 1.660156 30.71875 0.828125 L 30.53125 0.265625 C 30.21875 -0.703125 29.925781 -1.53125 29.65625 -2.21875 C 29.394531 -2.914062 29.046875 -3.648438 28.609375 -4.421875 C 28.117188 -5.273438 27.507812 -6.007812 26.78125 -6.625 C 26.050781 -7.25 25.242188 -7.710938 24.359375 -8.015625 C 23.484375 -8.328125 22.570312 -8.441406 21.625 -8.359375 C 20.675781 -8.285156 19.753906 -7.992188 18.859375 -7.484375 C 17.972656 -6.984375 17.300781 -6.347656 16.84375 -5.578125 C 16.382812 -4.804688 16.082031 -3.945312 15.9375 -3 C 15.800781 -2.050781 15.757812 -1.109375 15.8125 -0.171875 C 15.863281 0.753906 15.960938 1.945312 16.109375 3.40625 C 16.265625 4.769531 16.367188 5.894531 16.421875 6.78125 C 16.472656 7.664062 16.4375 8.546875 16.3125 9.421875 C 16.195312 10.296875 15.941406 11.078125 15.546875 11.765625 C 15.148438 12.460938 14.554688 13.039062 13.765625 13.5 C 12.335938 14.300781 11.007812 14.410156 9.78125 13.828125 C 8.550781 13.242188 7.5 12.191406 6.625 10.671875 C 6.050781 9.660156 5.738281 8.570312 5.6875 7.40625 C 5.632812 6.25 5.765625 5.082031 6.078125 3.90625 C 6.398438 2.738281 6.820312 1.617188 7.34375 0.546875 C 7.863281 -0.523438 8.457031 -1.566406 9.125 -2.578125 L 8.609375 -2.921875 L 8.328125 -2.65625 C 5.441406 0 3.238281 1.9375 1.71875 3.15625 C 1.75 3.1875 1.832031 3.253906 1.96875 3.359375 C 2.4375 3.765625 2.753906 4.117188 2.921875 4.421875 C 3.097656 4.722656 3.375 5.488281 3.75 6.71875 C 4.082031 7.8125 4.378906 8.707031 4.640625 9.40625 C 4.898438 10.113281 5.203125 10.769531 5.546875 11.375 C 6.859375 13.675781 8.488281 15.242188 10.4375 16.078125 C 12.382812 16.910156 14.441406 16.707031 16.609375 15.46875 C 17.703125 14.84375 18.539062 14.078125 19.125 13.171875 C 19.71875 12.265625 20.101562 11.285156 20.28125 10.234375 C 20.457031 9.191406 20.515625 8.171875 20.453125 7.171875 C 20.398438 6.171875 20.273438 4.878906 20.078125 3.296875 C 19.953125 2.097656 19.859375 1.085938 19.796875 0.265625 C 19.734375 -0.546875 19.75 -1.332031 19.84375 -2.09375 C 19.9375 -2.863281 20.148438 -3.550781 20.484375 -4.15625 C 20.816406 -4.769531 21.3125 -5.265625 21.96875 -5.640625 C 23.15625 -6.316406 24.242188 -6.398438 25.234375 -5.890625 C 26.222656 -5.390625 27.117188 -4.425781 27.921875 -3 C 28.421875 -2.132812 28.71875 -1.21875 28.8125 -0.25 C 28.914062 0.71875 28.859375 1.6875 28.640625 2.65625 C 28.421875 3.625 28.085938 4.554688 27.640625 5.453125 C 27.203125 6.347656 26.679688 7.179688 26.078125 7.953125 Z M 26.359375 8.4375 "/></g></g></g><g fill="#ece8d9" fill-opacity="1"><g transform="translate(187.252921, 555.441347)"><g><path d="M 27.578125 7.265625 L 17.234375 -3.5625 L 20.796875 -6.96875 C 21.710938 -7.832031 22.445312 -8.472656 23 -8.890625 C 23.550781 -9.316406 24.078125 -9.585938 24.578125 -9.703125 C 25.078125 -9.828125 25.582031 -9.773438 26.09375 -9.546875 C 26.613281 -9.316406 27.238281 -8.878906 27.96875 -8.234375 L 28.3125 -8.578125 C 26.632812 -10.171875 25.378906 -11.40625 24.546875 -12.28125 C 23.523438 -13.351562 22.046875 -14.976562 20.109375 -17.15625 L 19.765625 -16.8125 C 20.398438 -16.039062 20.828125 -15.378906 21.046875 -14.828125 C 21.273438 -14.273438 21.320312 -13.75 21.1875 -13.25 C 21.050781 -12.757812 20.765625 -12.25 20.328125 -11.71875 C 19.898438 -11.195312 19.21875 -10.492188 18.28125 -9.609375 L 8.53125 -0.296875 C 7.625 0.578125 6.894531 1.222656 6.34375 1.640625 C 5.789062 2.054688 5.269531 2.320312 4.78125 2.4375 C 4.289062 2.550781 3.769531 2.488281 3.21875 2.25 C 2.675781 2.007812 2.046875 1.5625 1.328125 0.90625 L 0.984375 1.25 C 2.835938 3.039062 4.21875 4.414062 5.125 5.375 C 6.09375 6.382812 7.441406 7.867188 9.171875 9.828125 L 9.265625 9.921875 L 9.609375 9.578125 C 8.960938 8.804688 8.53125 8.132812 8.3125 7.5625 C 8.09375 7 8.046875 6.472656 8.171875 5.984375 C 8.296875 5.492188 8.578125 4.984375 9.015625 4.453125 C 9.460938 3.921875 10.140625 3.21875 11.046875 2.34375 L 16.296875 -2.671875 L 26.640625 8.15625 L 21.390625 13.171875 C 20.484375 14.046875 19.75 14.6875 19.1875 15.09375 C 18.632812 15.507812 18.113281 15.773438 17.625 15.890625 C 17.132812 16.003906 16.613281 15.941406 16.0625 15.703125 C 15.519531 15.460938 14.890625 15.015625 14.171875 14.359375 L 13.828125 14.703125 C 15.679688 16.492188 17.066406 17.867188 17.984375 18.828125 C 18.941406 19.835938 20.289062 21.320312 22.03125 23.28125 L 22.109375 23.375 L 22.453125 23.03125 C 21.816406 22.269531 21.382812 21.601562 21.15625 21.03125 C 20.9375 20.457031 20.890625 19.925781 21.015625 19.4375 C 21.140625 18.945312 21.421875 18.429688 21.859375 17.890625 C 22.304688 17.359375 22.984375 16.65625 23.890625 15.78125 L 33.640625 6.46875 C 34.554688 5.601562 35.289062 4.960938 35.84375 4.546875 C 36.394531 4.128906 36.921875 3.859375 37.421875 3.734375 C 37.921875 3.617188 38.429688 3.675781 38.953125 3.90625 C 39.472656 4.132812 40.09375 4.578125 40.8125 5.234375 L 41.15625 4.890625 C 39.488281 3.285156 38.234375 2.039062 37.390625 1.15625 C 36.367188 0.09375 34.890625 -1.523438 32.953125 -3.703125 L 32.609375 -3.359375 C 33.253906 -2.585938 33.6875 -1.925781 33.90625 -1.375 C 34.132812 -0.820312 34.175781 -0.300781 34.03125 0.1875 C 33.894531 0.6875 33.613281 1.203125 33.1875 1.734375 C 32.757812 2.265625 32.078125 2.972656 31.140625 3.859375 Z M 27.578125 7.265625 "/></g></g></g><g fill="#ece8d9" fill-opacity="1"><g transform="translate(235.88639, 599.627209)"><g><path d="M 1.5 1.15625 C 3.707031 2.5 5.367188 3.53125 6.484375 4.25 C 7.648438 5.019531 9.296875 6.164062 11.421875 7.6875 L 11.53125 7.75 L 11.796875 7.34375 C 10.992188 6.738281 10.421875 6.1875 10.078125 5.6875 C 9.734375 5.1875 9.566406 4.679688 9.578125 4.171875 C 9.585938 3.660156 9.75 3.09375 10.0625 2.46875 C 10.375 1.851562 10.875 1.019531 11.5625 -0.03125 L 18.96875 -11.296875 C 19.65625 -12.347656 20.222656 -13.140625 20.671875 -13.671875 C 21.117188 -14.203125 21.570312 -14.582031 22.03125 -14.8125 C 22.488281 -15.050781 22.992188 -15.113281 23.546875 -15 C 24.109375 -14.894531 24.8125 -14.609375 25.65625 -14.140625 L 25.921875 -14.546875 C 23.929688 -15.722656 22.429688 -16.644531 21.421875 -17.3125 C 20.179688 -18.125 18.375 -19.375 16 -21.0625 L 15.734375 -20.65625 C 16.535156 -20.050781 17.109375 -19.503906 17.453125 -19.015625 C 17.796875 -18.523438 17.953125 -18.019531 17.921875 -17.5 C 17.898438 -16.988281 17.738281 -16.429688 17.4375 -15.828125 C 17.144531 -15.222656 16.644531 -14.378906 15.9375 -13.296875 L 8.53125 -2.03125 C 7.84375 -0.976562 7.269531 -0.1875 6.8125 0.34375 C 6.363281 0.875 5.914062 1.25 5.46875 1.46875 C 5.019531 1.695312 4.5 1.753906 3.90625 1.640625 C 3.320312 1.535156 2.609375 1.238281 1.765625 0.75 Z M 1.5 1.15625 "/></g></g></g><g fill="#ece8d9" fill-opacity="1"><g transform="translate(277.331771, 623.687457)"><g><path d="M 6.3125 -11.640625 C 5.582031 -9.671875 5.28125 -7.738281 5.40625 -5.84375 C 5.53125 -3.957031 6.019531 -2.203125 6.875 -0.578125 C 7.738281 1.046875 8.910156 2.472656 10.390625 3.703125 C 11.878906 4.929688 13.582031 5.898438 15.5 6.609375 C 17.414062 7.316406 19.332031 7.6875 21.25 7.71875 C 23.175781 7.75 25 7.425781 26.71875 6.75 C 28.4375 6.082031 29.953125 5.066406 31.265625 3.703125 C 32.585938 2.347656 33.613281 0.6875 34.34375 -1.28125 C 35.082031 -3.28125 35.390625 -5.21875 35.265625 -7.09375 C 35.148438 -8.976562 34.65625 -10.726562 33.78125 -12.34375 C 32.914062 -13.96875 31.738281 -15.394531 30.25 -16.625 C 28.769531 -17.851562 27.070312 -18.820312 25.15625 -19.53125 C 23.238281 -20.238281 21.316406 -20.609375 19.390625 -20.640625 C 17.472656 -20.671875 15.660156 -20.351562 13.953125 -19.6875 C 12.242188 -19.019531 10.726562 -18.007812 9.40625 -16.65625 C 8.082031 -15.3125 7.050781 -13.640625 6.3125 -11.640625 Z M 10.328125 -10.15625 C 10.898438 -11.695312 11.675781 -13.085938 12.65625 -14.328125 C 13.632812 -15.578125 14.757812 -16.585938 16.03125 -17.359375 C 17.3125 -18.140625 18.691406 -18.609375 20.171875 -18.765625 C 21.648438 -18.921875 23.144531 -18.71875 24.65625 -18.15625 C 26.175781 -17.601562 27.445312 -16.785156 28.46875 -15.703125 C 29.488281 -14.617188 30.226562 -13.363281 30.6875 -11.9375 C 31.15625 -10.519531 31.351562 -9.019531 31.28125 -7.4375 C 31.21875 -5.863281 30.898438 -4.304688 30.328125 -2.765625 C 29.765625 -1.234375 28.992188 0.148438 28.015625 1.390625 C 27.035156 2.640625 25.90625 3.648438 24.625 4.421875 C 23.351562 5.203125 21.976562 5.671875 20.5 5.828125 C 19.019531 5.992188 17.519531 5.800781 16 5.25 C 14.488281 4.6875 13.222656 3.859375 12.203125 2.765625 C 11.179688 1.679688 10.4375 0.429688 9.96875 -0.984375 C 9.507812 -2.410156 9.3125 -3.910156 9.375 -5.484375 C 9.445312 -7.066406 9.765625 -8.625 10.328125 -10.15625 Z M 10.328125 -10.15625 "/></g></g></g><g fill="#ece8d9" fill-opacity="1"><g transform="translate(341.009389, 642.566902)"><g><path d="M 2.96875 -25.734375 C 4.15625 -25.335938 5.21875 -24.890625 6.15625 -24.390625 C 7.101562 -23.890625 7.945312 -23.28125 8.6875 -22.5625 L 6.53125 -4.15625 C 6.414062 -3.238281 6.226562 -2.53125 5.96875 -2.03125 C 5.71875 -1.539062 5.363281 -1.171875 4.90625 -0.921875 C 4.445312 -0.671875 3.921875 -0.507812 3.328125 -0.4375 C 2.742188 -0.375 1.875 -0.316406 0.71875 -0.265625 L 0.671875 -0.265625 L 0.625 0.21875 C 2.675781 0.289062 4.210938 0.375 5.234375 0.46875 C 6.992188 0.632812 9.640625 0.925781 13.171875 1.34375 L 13.21875 0.859375 C 11.882812 0.609375 10.890625 0.3125 10.234375 -0.03125 C 9.578125 -0.375 9.113281 -0.90625 8.84375 -1.625 C 8.570312 -2.351562 8.4375 -3.363281 8.4375 -4.65625 C 8.445312 -5.957031 8.570312 -7.910156 8.8125 -10.515625 L 9.453125 -17.546875 C 9.535156 -18.460938 9.679688 -19.820312 9.890625 -21.625 C 11.410156 -19.632812 12.785156 -17.816406 14.015625 -16.171875 C 15.242188 -14.535156 16.578125 -12.679688 18.015625 -10.609375 C 19.453125 -8.535156 20.882812 -6.34375 22.3125 -4.03125 C 23.738281 -1.726562 25.035156 0.566406 26.203125 2.859375 L 27.6875 3 L 29.625 -18.3125 C 29.769531 -19.945312 30.1875 -21.09375 30.875 -21.75 C 31.570312 -22.414062 32.773438 -22.796875 34.484375 -22.890625 L 34.53125 -23.375 C 32.207031 -23.476562 30.460938 -23.582031 29.296875 -23.6875 C 28.023438 -23.800781 26.132812 -24.023438 23.625 -24.359375 L 23.578125 -23.875 C 25.617188 -23.53125 26.894531 -22.550781 27.40625 -20.9375 C 27.914062 -19.332031 28.003906 -16.679688 27.671875 -12.984375 L 27.25 -8.3125 C 27.226562 -8.039062 27.15625 -7.253906 27.03125 -5.953125 C 26.894531 -4.609375 26.8125 -3.800781 26.78125 -3.53125 L 26.703125 -3.53125 C 26.347656 -4.132812 25.867188 -4.90625 25.265625 -5.84375 C 24.660156 -6.78125 23.914062 -7.898438 23.03125 -9.203125 C 22.15625 -10.515625 21.316406 -11.757812 20.515625 -12.9375 C 19.722656 -14.125 18.753906 -15.5625 17.609375 -17.25 C 16.085938 -19.46875 14.890625 -21.222656 14.015625 -22.515625 C 13.140625 -23.804688 12.5 -24.769531 12.09375 -25.40625 L 11.96875 -25.40625 C 10.46875 -25.4375 9.351562 -25.488281 8.625 -25.5625 C 7.769531 -25.632812 6.9375 -25.71875 6.125 -25.8125 C 5.3125 -25.914062 4.519531 -26.019531 3.75 -26.125 L 3.015625 -26.21875 Z M 2.96875 -25.734375 "/></g></g></g><g fill="#ece8d9" fill-opacity="1"><g transform="translate(405.734204, 643.790919)"><g/></g></g><g fill="#ece8d9" fill-opacity="1"><g transform="translate(446.83496, 636.308082)"><g><path d="M 4.453125 -16.28125 C 6.066406 -16.8125 7.1875 -17.15625 7.8125 -17.3125 C 8.6875 -17.519531 9.425781 -17.625 10.03125 -17.625 C 10.632812 -17.632812 11.195312 -17.515625 11.71875 -17.265625 C 12.238281 -17.023438 12.738281 -16.644531 13.21875 -16.125 C 13.707031 -15.613281 14.25 -14.898438 14.84375 -13.984375 L 15.296875 -14.140625 C 14.972656 -14.992188 14.660156 -15.832031 14.359375 -16.65625 C 14.066406 -17.476562 13.78125 -18.3125 13.5 -19.15625 C 12.914062 -20.90625 12.375 -22.65625 11.875 -24.40625 L 11.421875 -24.25 C 11.390625 -22.601562 11.050781 -21.320312 10.40625 -20.40625 C 9.757812 -19.5 8.6875 -18.796875 7.1875 -18.296875 L 4.109375 -17.28125 L 0.953125 -26.78125 C 1.296875 -26.894531 1.773438 -27.0625 2.390625 -27.28125 C 2.941406 -27.5 3.351562 -27.65625 3.625 -27.75 C 5.289062 -28.300781 6.640625 -28.695312 7.671875 -28.9375 C 8.710938 -29.1875 9.71875 -29.269531 10.6875 -29.1875 C 11.664062 -29.101562 12.601562 -28.757812 13.5 -28.15625 C 14.40625 -27.5625 15.296875 -26.613281 16.171875 -25.3125 L 16.78125 -25.515625 C 16.101562 -27.210938 15.613281 -28.507812 15.3125 -29.40625 C 15.101562 -30.039062 14.820312 -31.070312 14.46875 -32.5 L 14.4375 -32.609375 L 13.59375 -32.296875 C 12.28125 -31.816406 11.25 -31.4375 10.5 -31.15625 C 9.757812 -30.882812 8.890625 -30.585938 7.890625 -30.265625 L -0.40625 -27.5 C -1.28125 -27.207031 -2.347656 -26.867188 -3.609375 -26.484375 C -4.460938 -26.234375 -5.140625 -26.03125 -5.640625 -25.875 C -6.148438 -25.726562 -6.566406 -25.609375 -6.890625 -25.515625 L -6.75 -25.046875 C -5.800781 -25.296875 -5.023438 -25.40625 -4.421875 -25.375 C -3.816406 -25.34375 -3.316406 -25.15625 -2.921875 -24.8125 C -2.523438 -24.476562 -2.171875 -23.992188 -1.859375 -23.359375 C -1.554688 -22.734375 -1.210938 -21.832031 -0.828125 -20.65625 L 3.421875 -7.859375 C 3.816406 -6.679688 4.078125 -5.742188 4.203125 -5.046875 C 4.335938 -4.359375 4.34375 -3.765625 4.21875 -3.265625 C 4.101562 -2.773438 3.8125 -2.332031 3.34375 -1.9375 C 2.882812 -1.550781 2.207031 -1.164062 1.3125 -0.78125 L 1.46875 -0.328125 C 3.9375 -1.253906 5.796875 -1.925781 7.046875 -2.34375 C 8.523438 -2.832031 10.675781 -3.492188 13.5 -4.328125 L 13.59375 -4.359375 L 13.4375 -4.8125 C 12.195312 -4.65625 11.265625 -4.570312 10.640625 -4.5625 C 10.023438 -4.550781 9.507812 -4.644531 9.09375 -4.84375 C 8.6875 -5.050781 8.335938 -5.421875 8.046875 -5.953125 C 7.753906 -6.484375 7.429688 -7.28125 7.078125 -8.34375 Z M 4.453125 -16.28125 "/></g></g></g><g fill="#ece8d9" fill-opacity="1"><g transform="translate(499.827151, 614.655955)"><g><path d="M 1.703125 -0.8125 C 3.878906 -2.21875 5.539062 -3.253906 6.6875 -3.921875 C 7.894531 -4.628906 9.648438 -5.597656 11.953125 -6.828125 L 12.0625 -6.890625 L 11.8125 -7.3125 C 10.914062 -6.863281 10.164062 -6.59375 9.5625 -6.5 C 8.957031 -6.414062 8.429688 -6.492188 7.984375 -6.734375 C 7.535156 -6.972656 7.097656 -7.367188 6.671875 -7.921875 C 6.253906 -8.472656 5.726562 -9.289062 5.09375 -10.375 L -1.734375 -22 C -2.367188 -23.09375 -2.820312 -23.957031 -3.09375 -24.59375 C -3.375 -25.226562 -3.515625 -25.800781 -3.515625 -26.3125 C -3.523438 -26.820312 -3.359375 -27.300781 -3.015625 -27.75 C -2.671875 -28.207031 -2.09375 -28.710938 -1.28125 -29.265625 L -1.53125 -29.6875 C -3.488281 -28.414062 -4.988281 -27.476562 -6.03125 -26.875 C -7.300781 -26.125 -9.21875 -25.0625 -11.78125 -23.6875 L -11.53125 -23.265625 C -10.632812 -23.703125 -9.894531 -23.96875 -9.3125 -24.0625 C -8.726562 -24.15625 -8.207031 -24.078125 -7.75 -23.828125 C -7.300781 -23.585938 -6.867188 -23.195312 -6.453125 -22.65625 C -6.035156 -22.113281 -5.503906 -21.285156 -4.859375 -20.171875 L 1.96875 -8.546875 C 2.601562 -7.460938 3.054688 -6.601562 3.328125 -5.96875 C 3.609375 -5.332031 3.75 -4.757812 3.75 -4.25 C 3.75 -3.75 3.566406 -3.257812 3.203125 -2.78125 C 2.847656 -2.300781 2.265625 -1.785156 1.453125 -1.234375 Z M 1.703125 -0.8125 "/></g></g></g><g fill="#ece8d9" fill-opacity="1"><g transform="translate(539.736066, 588.180271)"><g><path d="M -17.296875 -19.296875 C -16.210938 -19.910156 -15.171875 -20.398438 -14.171875 -20.765625 C -13.171875 -21.140625 -12.148438 -21.375 -11.109375 -21.46875 L 1.234375 -7.65625 C 1.835938 -6.957031 2.238281 -6.34375 2.4375 -5.8125 C 2.644531 -5.289062 2.691406 -4.773438 2.578125 -4.265625 C 2.460938 -3.765625 2.234375 -3.269531 1.890625 -2.78125 C 1.546875 -2.300781 1.007812 -1.609375 0.28125 -0.703125 L 0.25 -0.671875 L 0.578125 -0.328125 C 1.992188 -1.804688 3.078125 -2.894531 3.828125 -3.59375 C 5.109375 -4.8125 7.078125 -6.601562 9.734375 -8.96875 L 9.40625 -9.3125 C 8.34375 -8.488281 7.460938 -7.941406 6.765625 -7.671875 C 6.066406 -7.410156 5.359375 -7.421875 4.640625 -7.703125 C 3.921875 -7.984375 3.078125 -8.554688 2.109375 -9.421875 C 1.148438 -10.285156 -0.222656 -11.671875 -2.015625 -13.578125 L -6.859375 -18.71875 C -7.492188 -19.382812 -8.421875 -20.394531 -9.640625 -21.75 C -7.128906 -21.570312 -4.851562 -21.394531 -2.8125 -21.21875 C -0.769531 -21.050781 1.5 -20.816406 4 -20.515625 C 6.507812 -20.210938 9.097656 -19.832031 11.765625 -19.375 C 14.441406 -18.914062 17.023438 -18.363281 19.515625 -17.71875 L 20.59375 -18.734375 L 5.921875 -34.3125 C 4.796875 -35.507812 4.21875 -36.585938 4.1875 -37.546875 C 4.15625 -38.515625 4.671875 -39.664062 5.734375 -41 L 5.40625 -41.34375 C 3.789062 -39.6875 2.554688 -38.453125 1.703125 -37.640625 C 0.773438 -36.765625 -0.644531 -35.5 -2.5625 -33.84375 L -2.234375 -33.5 C -0.628906 -34.789062 0.941406 -35.085938 2.484375 -34.390625 C 4.035156 -33.703125 6.082031 -32.007812 8.625 -29.3125 L 11.84375 -25.90625 C 12.03125 -25.707031 12.570312 -25.128906 13.46875 -24.171875 C 14.382812 -23.179688 14.929688 -22.59375 15.109375 -22.40625 L 15.046875 -22.359375 C 14.367188 -22.484375 13.476562 -22.625 12.375 -22.78125 C 11.28125 -22.945312 9.953125 -23.132812 8.390625 -23.34375 C 6.828125 -23.550781 5.335938 -23.75 3.921875 -23.9375 C 2.515625 -24.125 0.796875 -24.351562 -1.234375 -24.625 C -3.910156 -24.945312 -6.019531 -25.210938 -7.5625 -25.421875 C -9.101562 -25.628906 -10.242188 -25.789062 -10.984375 -25.90625 L -11.078125 -25.8125 C -12.097656 -24.707031 -12.875 -23.90625 -13.40625 -23.40625 C -14.03125 -22.8125 -14.648438 -22.242188 -15.265625 -21.703125 C -15.878906 -21.171875 -16.484375 -20.644531 -17.078125 -20.125 L -17.625 -19.640625 Z M -17.296875 -19.296875 "/></g></g></g><g fill="#ece8d9" fill-opacity="1"><g transform="translate(584.511242, 540.104825)"><g><path d="M 0.96875 -1.265625 L 1.03125 -1.359375 C 2.144531 -3.390625 3.019531 -4.921875 3.65625 -5.953125 C 4 -6.503906 4.515625 -7.304688 5.203125 -8.359375 C 6.523438 -10.472656 7.832031 -12.585938 9.125 -14.703125 C 10.144531 -16.347656 10.898438 -18.035156 11.390625 -19.765625 C 11.890625 -21.503906 12.0625 -23.210938 11.90625 -24.890625 C 11.757812 -26.578125 11.210938 -28.164062 10.265625 -29.65625 C 9.328125 -31.144531 7.9375 -32.453125 6.09375 -33.578125 C 4.238281 -34.722656 2.335938 -35.410156 0.390625 -35.640625 C -1.546875 -35.867188 -3.429688 -35.691406 -5.265625 -35.109375 C -7.109375 -34.535156 -8.816406 -33.613281 -10.390625 -32.34375 C -11.960938 -31.070312 -13.316406 -29.507812 -14.453125 -27.65625 C -15.046875 -26.6875 -15.816406 -25.257812 -16.765625 -23.375 C -17.796875 -21.320312 -18.648438 -19.742188 -19.328125 -18.640625 C -19.785156 -17.890625 -20.539062 -16.757812 -21.59375 -15.25 L -21.65625 -15.15625 L -21.25 -14.90625 C -20.21875 -16.289062 -19.34375 -17.035156 -18.625 -17.140625 C -17.90625 -17.253906 -16.984375 -16.960938 -15.859375 -16.265625 L 0.015625 -6.515625 C 0.710938 -6.085938 1.148438 -5.503906 1.328125 -4.765625 C 1.515625 -4.023438 1.253906 -2.941406 0.546875 -1.515625 Z M -9.046875 -16.359375 C -11.929688 -18.128906 -14.285156 -19.671875 -16.109375 -20.984375 C -15.828125 -22.867188 -15.207031 -24.59375 -14.25 -26.15625 C -13.300781 -27.6875 -12.15625 -28.941406 -10.8125 -29.921875 C -9.46875 -30.910156 -8.003906 -31.59375 -6.421875 -31.96875 C -4.847656 -32.34375 -3.253906 -32.394531 -1.640625 -32.125 C -0.0234375 -31.851562 1.523438 -31.257812 3.015625 -30.34375 C 6.523438 -28.1875 8.660156 -25.738281 9.421875 -23 C 10.179688 -20.257812 9.492188 -17.160156 7.359375 -13.703125 C 6.734375 -12.671875 5.984375 -11.773438 5.109375 -11.015625 C 4.234375 -10.253906 3.265625 -9.734375 2.203125 -9.453125 Z M -9.046875 -16.359375 "/></g></g></g><g fill="#ece8d9" fill-opacity="1"><g transform="translate(615.262706, 481.489519)"><g><path d="M -10.6875 -13 L -9.9375 -15.453125 C -9.601562 -16.546875 -9.257812 -17.429688 -8.90625 -18.109375 C -8.550781 -18.796875 -8.117188 -19.335938 -7.609375 -19.734375 C -7.097656 -20.140625 -6.453125 -20.394531 -5.671875 -20.5 C -4.890625 -20.613281 -3.914062 -20.625 -2.75 -20.53125 L -2.609375 -20.984375 C -3.234375 -21.171875 -4.164062 -21.445312 -5.40625 -21.8125 C -6.644531 -22.164062 -7.570312 -22.441406 -8.1875 -22.640625 C -8.78125 -22.816406 -9.695312 -23.109375 -10.9375 -23.515625 C -12.15625 -23.910156 -13.078125 -24.203125 -13.703125 -24.390625 L -13.84375 -23.9375 C -12.113281 -23.144531 -11.023438 -22.132812 -10.578125 -20.90625 C -10.140625 -19.675781 -10.207031 -18.132812 -10.78125 -16.28125 C -10.882812 -15.9375 -11.019531 -15.441406 -11.1875 -14.796875 C -11.375 -14.128906 -11.519531 -13.628906 -11.625 -13.296875 L -21.265625 -16.25 C -20.859375 -18.125 -20.378906 -19.953125 -19.828125 -21.734375 C -19.503906 -22.785156 -19.128906 -23.710938 -18.703125 -24.515625 C -18.273438 -25.328125 -17.734375 -26.023438 -17.078125 -26.609375 C -16.421875 -27.191406 -15.613281 -27.640625 -14.65625 -27.953125 C -13.695312 -28.265625 -12.566406 -28.390625 -11.265625 -28.328125 L -11.265625 -28.875 C -11.578125 -28.9375 -12.097656 -29.054688 -12.828125 -29.234375 C -13.816406 -29.453125 -14.53125 -29.628906 -14.96875 -29.765625 C -16.300781 -30.171875 -17.351562 -30.53125 -18.125 -30.84375 L -18.15625 -30.71875 C -19.507812 -25.976562 -20.566406 -22.375 -21.328125 -19.90625 C -21.867188 -18.132812 -22.390625 -16.484375 -22.890625 -14.953125 C -23.390625 -13.429688 -23.863281 -11.984375 -24.3125 -10.609375 L -24.78125 -9.203125 L -24.328125 -9.046875 C -23.960938 -9.972656 -23.59375 -10.664062 -23.21875 -11.125 C -22.851562 -11.59375 -22.421875 -11.882812 -21.921875 -12 C -21.421875 -12.113281 -20.835938 -12.109375 -20.171875 -11.984375 C -19.503906 -11.867188 -18.554688 -11.625 -17.328125 -11.25 L -4.4375 -7.28125 C -3.226562 -6.90625 -2.300781 -6.585938 -1.65625 -6.328125 C -1.019531 -6.066406 -0.535156 -5.738281 -0.203125 -5.34375 C 0.117188 -4.957031 0.3125 -4.472656 0.375 -3.890625 C 0.4375 -3.304688 0.363281 -2.546875 0.15625 -1.609375 L 0.625 -1.46875 L 0.65625 -1.5625 C 1.132812 -3.507812 1.53125 -4.976562 1.84375 -5.96875 L 6.296875 -20.484375 C 6.492188 -21.109375 6.820312 -21.988281 7.28125 -23.125 L 0.609375 -29.03125 L 0.140625 -28.703125 C 1.097656 -27.359375 1.875 -26.101562 2.46875 -24.9375 C 3.070312 -23.78125 3.492188 -22.613281 3.734375 -21.4375 C 3.984375 -20.257812 4.050781 -19.023438 3.9375 -17.734375 C 3.820312 -16.453125 3.523438 -15.03125 3.046875 -13.46875 C 2.847656 -12.820312 2.566406 -12.085938 2.203125 -11.265625 C 1.835938 -10.453125 1.507812 -9.8125 1.21875 -9.34375 Z M -10.6875 -13 "/></g></g></g><g fill="#ece8d9" fill-opacity="1"><g transform="translate(629.201113, 423.036531)"><g><path d="M 1.15625 -29.765625 C 0.957031 -28.554688 0.410156 -27.375 -0.484375 -26.21875 C -1.390625 -25.0625 -2.46875 -23.976562 -3.71875 -22.96875 C -4.96875 -21.957031 -6.234375 -21.054688 -7.515625 -20.265625 C -8.804688 -19.472656 -10.0625 -18.753906 -11.28125 -18.109375 C -11.550781 -19.992188 -12.203125 -21.546875 -13.234375 -22.765625 C -14.273438 -23.984375 -15.671875 -24.640625 -17.421875 -24.734375 C -18.742188 -24.804688 -19.921875 -24.570312 -20.953125 -24.03125 C -21.992188 -23.5 -22.863281 -22.757812 -23.5625 -21.8125 C -24.257812 -20.875 -24.796875 -19.816406 -25.171875 -18.640625 C -25.546875 -17.472656 -25.769531 -16.273438 -25.84375 -15.046875 C -25.875 -14.535156 -25.882812 -13.921875 -25.875 -13.203125 C -25.875 -12.492188 -25.851562 -11.785156 -25.8125 -11.078125 C -25.789062 -9.597656 -25.789062 -8.628906 -25.8125 -8.171875 C -25.875 -7.023438 -26.019531 -5.347656 -26.25 -3.140625 L -26.25 -3.03125 L -25.765625 -3.015625 C -25.640625 -3.972656 -25.453125 -4.722656 -25.203125 -5.265625 C -24.960938 -5.804688 -24.625 -6.1875 -24.1875 -6.40625 C -23.75 -6.632812 -23.179688 -6.769531 -22.484375 -6.8125 C -21.796875 -6.851562 -20.804688 -6.835938 -19.515625 -6.765625 L -6.046875 -6.03125 C -4.796875 -5.957031 -3.828125 -5.863281 -3.140625 -5.75 C -2.460938 -5.632812 -1.910156 -5.4375 -1.484375 -5.15625 C -1.066406 -4.882812 -0.757812 -4.46875 -0.5625 -3.90625 C -0.363281 -3.34375 -0.253906 -2.570312 -0.234375 -1.59375 L 0.25 -1.5625 C 0.28125 -4.144531 0.332031 -6.09375 0.40625 -7.40625 C 0.488281 -8.8125 0.65625 -10.8125 0.90625 -13.40625 L 0.90625 -13.53125 L 0.421875 -13.5625 C 0.296875 -12.570312 0.101562 -11.800781 -0.15625 -11.25 C -0.414062 -10.695312 -0.769531 -10.296875 -1.21875 -10.046875 C -1.664062 -9.804688 -2.234375 -9.664062 -2.921875 -9.625 C -3.617188 -9.582031 -4.59375 -9.597656 -5.84375 -9.671875 L -12.140625 -10.015625 C -11.921875 -10.535156 -11.703125 -11.296875 -11.484375 -12.296875 C -11.265625 -13.296875 -11.144531 -14.066406 -11.125 -14.609375 C -9.019531 -15.503906 -6.953125 -16.617188 -4.921875 -17.953125 C -2.898438 -19.285156 -0.84375 -20.796875 1.25 -22.484375 L 1.640625 -29.734375 Z M -16.25 -10.234375 C -17.75 -10.316406 -19.054688 -10.398438 -20.171875 -10.484375 C -21.296875 -10.578125 -22.710938 -10.695312 -24.421875 -10.84375 C -24.648438 -11.863281 -24.722656 -13.164062 -24.640625 -14.75 C -24.535156 -16.488281 -23.898438 -17.945312 -22.734375 -19.125 C -21.566406 -20.300781 -20.125 -20.84375 -18.40625 -20.75 C -16.28125 -20.632812 -14.753906 -19.984375 -13.828125 -18.796875 C -12.898438 -17.609375 -12.5 -15.941406 -12.625 -13.796875 C -12.6875 -12.609375 -12.984375 -11.375 -13.515625 -10.09375 Z M -16.25 -10.234375 "/></g></g></g><g fill="#494949" fill-opacity="1"><g transform="translate(218.386586, 442.975344)"><g><path d="M 74.164062 0 C 121.269531 0 124.488281 -33.488281 124.488281 -44.648438 C 124.488281 -77.566406 96.488281 -85.703125 80.40625 -85.703125 C 78.136719 -85.703125 75.867188 -85.515625 73.40625 -85.136719 C 84.378906 -91 94.40625 -98.945312 94.40625 -111.8125 C 94.40625 -126.191406 81.164062 -132.433594 69.054688 -132.433594 L 6.621094 -132.433594 C 10.59375 -128.460938 10.214844 -121.460938 10.214844 -114.269531 L 10.214844 -18.164062 C 10.214844 -10.972656 10.59375 -3.972656 6.621094 0 Z M 80.21875 -83.433594 C 108.027344 -83.433594 115.597656 -58.269531 115.597656 -44.648438 C 115.597656 -33.296875 112.378906 -2.082031 65.269531 -2.082031 L 18.351562 -2.082031 L 18.351562 -39.730469 C 24.40625 -60.351562 57.890625 -83.433594 80.21875 -83.433594 Z M 18.351562 -45.027344 L 18.351562 -130.351562 L 63 -130.351562 C 73.59375 -130.351562 85.894531 -125.246094 85.894531 -111.8125 C 85.894531 -97.621094 76.242188 -90.8125 61.109375 -81.730469 C 60.164062 -81.164062 59.027344 -80.785156 57.703125 -80.21875 C 38.972656 -72.269531 22.136719 -56 18.351562 -45.027344 Z M 18.351562 -45.027344 "/></g></g></g><g clip-path="url(#fbb8726df2)"><path fill="#ece8d9" d="M 338.550781 291.75 L 398.097656 291.75 L 398.097656 472.683594 L 338.550781 472.683594 Z M 338.550781 291.75 " fill-opacity="1" fill-rule="nonzero"/></g><g clip-path="url(#5854e5a8c6)"><path fill="#494949" d="M 547.992188 525.503906 L 525.480469 525.503906 C 525.480469 373.089844 419.023438 266.621094 266.597656 266.621094 L 266.597656 244.109375 C 429.648438 244.109375 547.992188 362.453125 547.992188 525.503906 Z M 547.992188 525.503906 " fill-opacity="1" fill-rule="nonzero"/></g><g fill="#494949" fill-opacity="1"><g transform="translate(328.165588, 442.371416)"><g><path d="M 6.621094 -132.414062 C 10.59375 -128.441406 10.214844 -121.441406 10.214844 -114.253906 L 10.214844 -18.160156 C 10.214844 -10.972656 10.59375 -3.972656 6.621094 0 L 21.941406 0 C 17.96875 -3.972656 18.347656 -10.972656 18.347656 -18.160156 L 18.347656 -66.964844 C 18.539062 -73.394531 25.914062 -77.179688 32.535156 -77.179688 C 49.371094 -77.179688 60.34375 -64.125 80.394531 -64.125 C 91.933594 -64.125 97.230469 -70.558594 97.230469 -75.664062 C 94.582031 -71.882812 91.742188 -70.367188 84.175781 -70.367188 C 67.910156 -70.367188 55.234375 -83.042969 37.074219 -83.042969 C 27.238281 -83.042969 20.242188 -76.988281 18.347656 -72.070312 L 18.347656 -130.332031 L 54.101562 -130.332031 C 70.367188 -130.332031 91.175781 -128.0625 104.226562 -122.578125 L 104.226562 -132.414062 Z M 6.621094 -132.414062 "/></g></g></g><g fill="#494949" fill-opacity="1"><g transform="translate(424.370104, 442.386477)"><g><path d="M 6.628906 -132.609375 C 10.609375 -128.628906 10.230469 -121.621094 10.230469 -114.421875 L 10.230469 -18.1875 C 10.230469 -10.988281 10.609375 -3.976562 6.628906 0 L 21.976562 0 C 17.996094 -3.976562 18.375 -10.988281 18.375 -18.1875 L 18.375 -67.0625 C 18.566406 -73.503906 25.953125 -77.292969 32.582031 -77.292969 C 49.445312 -77.292969 60.429688 -64.21875 80.511719 -64.21875 C 92.066406 -64.21875 97.371094 -70.660156 97.371094 -75.777344 C 94.71875 -71.988281 91.878906 -70.472656 84.300781 -70.472656 C 68.007812 -70.472656 55.316406 -83.164062 37.128906 -83.164062 C 27.28125 -83.164062 20.269531 -77.101562 18.375 -72.175781 L 18.375 -130.523438 L 54.179688 -130.523438 C 70.472656 -130.523438 91.308594 -128.25 104.382812 -122.757812 L 104.382812 -132.609375 Z M 6.628906 -132.609375 "/></g></g></g><g fill="#ece8d9" fill-opacity="1"><g transform="translate(272.359462, 181.485105)"><g><path d="M 2 -8.25 C 2.582031 -7.132812 3 -6.253906 3.25 -5.609375 C 3.5 -4.960938 3.609375 -4.390625 3.578125 -3.890625 C 3.546875 -3.390625 3.351562 -2.914062 3 -2.46875 C 2.65625 -2.019531 2.066406 -1.539062 1.234375 -1.03125 L 1.46875 -0.59375 C 2.894531 -1.46875 3.976562 -2.097656 4.71875 -2.484375 C 5.78125 -3.046875 7.425781 -3.832031 9.65625 -4.84375 C 11.863281 -5.863281 13.503906 -6.65625 14.578125 -7.21875 C 15.691406 -7.800781 16.691406 -8.445312 17.578125 -9.15625 C 18.472656 -9.875 19.195312 -10.660156 19.75 -11.515625 C 20.300781 -12.367188 20.609375 -13.285156 20.671875 -14.265625 C 20.734375 -15.242188 20.488281 -16.257812 19.9375 -17.3125 C 19.03125 -19.019531 17.832031 -20.191406 16.34375 -20.828125 C 14.851562 -21.472656 13.140625 -21.617188 11.203125 -21.265625 L 11.15625 -21.34375 C 12 -22.21875 12.519531 -23.269531 12.71875 -24.5 C 12.925781 -25.726562 12.753906 -26.867188 12.203125 -27.921875 C 11.546875 -29.148438 10.695312 -30.046875 9.65625 -30.609375 C 8.625 -31.171875 7.503906 -31.460938 6.296875 -31.484375 C 5.085938 -31.503906 3.878906 -31.335938 2.671875 -30.984375 C 1.472656 -30.640625 0.320312 -30.179688 -0.78125 -29.609375 C -1.5625 -29.191406 -2.585938 -28.582031 -3.859375 -27.78125 C -5.054688 -27.039062 -5.945312 -26.519531 -6.53125 -26.21875 C -7.507812 -25.695312 -8.957031 -24.988281 -10.875 -24.09375 L -10.96875 -24.046875 L -10.75 -23.625 C -9.851562 -24.007812 -9.113281 -24.234375 -8.53125 -24.296875 C -7.945312 -24.359375 -7.441406 -24.257812 -7.015625 -24 C -6.585938 -23.738281 -6.175781 -23.320312 -5.78125 -22.75 C -5.382812 -22.175781 -4.882812 -21.320312 -4.28125 -20.1875 Z M 1.90625 -16.25 C 3.320312 -16.4375 4.890625 -16.984375 6.609375 -17.890625 C 7.265625 -18.234375 8.207031 -18.863281 9.4375 -19.78125 L 9.84375 -20.109375 C 11.082031 -19.941406 12.234375 -19.578125 13.296875 -19.015625 C 14.367188 -18.460938 15.160156 -17.703125 15.671875 -16.734375 C 16.660156 -14.847656 16.882812 -13.101562 16.34375 -11.5 C 15.8125 -9.90625 14.582031 -8.597656 12.65625 -7.578125 C 12.207031 -7.347656 11.691406 -7.117188 11.109375 -6.890625 C 10.535156 -6.660156 9.988281 -6.476562 9.46875 -6.34375 C 8.28125 -6.019531 7.515625 -5.984375 7.171875 -6.234375 Z M -3.390625 -26.3125 C -2.671875 -27.050781 -1.644531 -27.773438 -0.3125 -28.484375 C 1.332031 -29.347656 3.003906 -29.597656 4.703125 -29.234375 C 6.398438 -28.867188 7.65625 -27.910156 8.46875 -26.359375 C 9.28125 -24.816406 9.421875 -23.347656 8.890625 -21.953125 C 8.367188 -20.554688 7.328125 -19.445312 5.765625 -18.625 C 4.179688 -17.789062 2.695312 -17.375 1.3125 -17.375 Z M -3.390625 -26.3125 "/></g></g></g><g fill="#ece8d9" fill-opacity="1"><g transform="translate(319.44493, 160.011297)"><g><path d="M 7.625 -29.15625 C 4.738281 -28.320312 2.554688 -27.71875 1.078125 -27.34375 C -0.304688 -26.988281 -2.304688 -26.53125 -4.921875 -25.96875 L -5.03125 -25.953125 L -4.90625 -25.484375 C -3.945312 -25.640625 -3.179688 -25.679688 -2.609375 -25.609375 C -2.035156 -25.535156 -1.5625 -25.3125 -1.1875 -24.9375 C -0.820312 -24.570312 -0.523438 -24.0625 -0.296875 -23.40625 C -0.0664062 -22.757812 0.203125 -21.828125 0.515625 -20.609375 L 4.4375 -5.109375 C 4.71875 -4.015625 4.660156 -3.140625 4.265625 -2.484375 C 3.878906 -1.835938 2.914062 -1.238281 1.375 -0.6875 L 1.484375 -0.21875 C 3.179688 -0.75 4.472656 -1.128906 5.359375 -1.359375 L 16.859375 -4.265625 C 18.140625 -4.585938 20.039062 -5.015625 22.5625 -5.546875 L 23.375 -15.078125 L 22.796875 -14.9375 C 21.835938 -11.78125 20.648438 -9.40625 19.234375 -7.8125 C 17.828125 -6.21875 15.664062 -5.050781 12.75 -4.3125 C 11.78125 -4.0625 10.375 -3.890625 8.53125 -3.796875 L 3.78125 -22.578125 C 3.550781 -23.484375 3.414062 -24.191406 3.375 -24.703125 C 3.34375 -25.222656 3.441406 -25.691406 3.671875 -26.109375 C 3.898438 -26.523438 4.332031 -26.929688 4.96875 -27.328125 C 5.613281 -27.734375 6.539062 -28.1875 7.75 -28.6875 Z M 7.625 -29.15625 "/></g></g></g><g fill="#ece8d9" fill-opacity="1"><g transform="translate(368.753887, 150.349535)"><g><path d="M 17.125 -11.828125 L 19.8125 -4.421875 C 19.832031 -4.335938 19.878906 -4.234375 19.953125 -4.109375 C 20.109375 -3.710938 20.1875 -3.40625 20.1875 -3.1875 C 20.195312 -2.488281 19.832031 -1.90625 19.09375 -1.4375 C 18.363281 -0.96875 17.40625 -0.648438 16.21875 -0.484375 L 16.21875 0 L 17.1875 -0.046875 C 18.132812 -0.109375 18.910156 -0.148438 19.515625 -0.171875 C 20.117188 -0.191406 20.972656 -0.207031 22.078125 -0.21875 C 23.554688 -0.226562 25.65625 -0.195312 28.375 -0.125 L 28.5 -0.125 L 28.5 -0.609375 C 27.226562 -0.742188 26.242188 -1.097656 25.546875 -1.671875 C 24.859375 -2.242188 24.3125 -3.082031 23.90625 -4.1875 L 15.265625 -27.203125 C 15.054688 -27.109375 14.800781 -26.992188 14.5 -26.859375 C 13.40625 -26.390625 12.5 -26.082031 11.78125 -25.9375 C 11.914062 -25.707031 12.03125 -25.460938 12.125 -25.203125 C 12.226562 -24.953125 12.28125 -24.757812 12.28125 -24.625 C 12.28125 -24.457031 12.1875 -24.175781 12 -23.78125 C 12 -23.71875 11.984375 -23.675781 11.953125 -23.65625 L 5.140625 -6.421875 L 4.90625 -5.8125 C 4.25 -4.1875 3.601562 -2.941406 2.96875 -2.078125 C 2.332031 -1.210938 1.316406 -0.628906 -0.078125 -0.328125 L -0.078125 0.15625 L 0.609375 0.125 C 2.410156 0.0195312 3.78125 -0.0351562 4.71875 -0.046875 C 5.820312 -0.0546875 7.453125 -0.0195312 9.609375 0.0625 L 9.609375 -0.421875 C 9.285156 -0.472656 8.90625 -0.5625 8.46875 -0.6875 C 8.03125 -0.820312 7.609375 -1.003906 7.203125 -1.234375 C 6.804688 -1.472656 6.46875 -1.765625 6.1875 -2.109375 C 5.914062 -2.460938 5.78125 -2.867188 5.78125 -3.328125 C 5.78125 -3.546875 5.851562 -3.84375 6 -4.21875 L 6.09375 -4.421875 L 8.6875 -11.734375 Z M 16.671875 -13.03125 L 9.078125 -12.96875 L 12.9375 -23.25 Z M 16.671875 -13.03125 "/></g></g></g><g fill="#ece8d9" fill-opacity="1"><g transform="translate(421.113171, 152.765046)"><g><path d="M 29.03125 -10.765625 C 29.15625 -11.710938 29.25 -12.476562 29.3125 -13.0625 C 29.382812 -13.65625 29.476562 -14.347656 29.59375 -15.140625 C 29.71875 -15.941406 29.835938 -16.707031 29.953125 -17.4375 C 30.066406 -18.164062 30.1875 -18.800781 30.3125 -19.34375 C 29.488281 -19.570312 28.257812 -20.039062 26.625 -20.75 C 25.519531 -21.238281 24.5625 -21.640625 23.75 -21.953125 C 22.945312 -22.273438 22.0625 -22.550781 21.09375 -22.78125 C 19.332031 -23.195312 17.585938 -23.265625 15.859375 -22.984375 C 14.140625 -22.703125 12.539062 -22.09375 11.0625 -21.15625 C 9.582031 -20.21875 8.304688 -18.992188 7.234375 -17.484375 C 6.160156 -15.972656 5.390625 -14.242188 4.921875 -12.296875 C 4.460938 -10.359375 4.375 -8.472656 4.65625 -6.640625 C 4.9375 -4.804688 5.523438 -3.140625 6.421875 -1.640625 C 7.328125 -0.140625 8.484375 1.125 9.890625 2.15625 C 11.304688 3.1875 12.894531 3.910156 14.65625 4.328125 C 17.59375 5.023438 20.195312 4.9375 22.46875 4.0625 C 24.75 3.1875 27.1875 1.550781 29.78125 -0.84375 L 28.984375 -1.859375 C 27.054688 0.00390625 25.046875 1.316406 22.953125 2.078125 C 20.859375 2.835938 18.660156 2.945312 16.359375 2.40625 C 14.796875 2.03125 13.460938 1.382812 12.359375 0.46875 C 11.253906 -0.4375 10.414062 -1.535156 9.84375 -2.828125 C 9.269531 -4.128906 8.929688 -5.539062 8.828125 -7.0625 C 8.734375 -8.582031 8.878906 -10.140625 9.265625 -11.734375 C 9.648438 -13.359375 10.175781 -14.835938 10.84375 -16.171875 C 11.519531 -17.503906 12.34375 -18.617188 13.3125 -19.515625 C 14.289062 -20.421875 15.425781 -21.039062 16.71875 -21.375 C 18.019531 -21.707031 19.445312 -21.6875 21 -21.3125 C 23.414062 -20.738281 25.222656 -19.53125 26.421875 -17.6875 C 27.628906 -15.84375 28.316406 -13.578125 28.484375 -10.890625 Z M 29.03125 -10.765625 "/></g></g></g><g fill="#ece8d9" fill-opacity="1"><g transform="translate(471.322936, 167.646825)"><g><path d="M 13.578125 -6.171875 L 18.40625 -7.0625 L 19.6875 3.6875 C 19.707031 3.820312 19.75 4.148438 19.8125 4.671875 C 19.90625 5.410156 19.957031 5.941406 19.96875 6.265625 C 19.988281 6.585938 19.925781 6.882812 19.78125 7.15625 C 19.394531 7.894531 18.832031 8.273438 18.09375 8.296875 C 17.351562 8.328125 16.484375 8.125 15.484375 7.6875 L 15.25 8.125 L 15.34375 8.171875 C 17.757812 9.304688 19.601562 10.203125 20.875 10.859375 C 22.257812 11.585938 24.285156 12.703125 26.953125 14.203125 L 27.1875 13.765625 C 26.070312 13.109375 25.226562 12.144531 24.65625 10.875 C 24.09375 9.601562 23.707031 8.175781 23.5 6.59375 L 21.796875 -7.796875 L 28.21875 -9.28125 C 29.53125 -9.582031 30.609375 -9.804688 31.453125 -9.953125 C 32.304688 -10.097656 33.085938 -10.1875 33.796875 -10.21875 C 34.515625 -10.257812 35.1875 -10.222656 35.8125 -10.109375 C 36.4375 -10.003906 37.078125 -9.820312 37.734375 -9.5625 L 37.96875 -9.984375 C 35.382812 -11.210938 33.457031 -12.15625 32.1875 -12.8125 C 30.96875 -13.445312 29.253906 -14.398438 27.046875 -15.671875 L 26.9375 -15.734375 L 26.703125 -15.3125 C 27.421875 -14.914062 27.953125 -14.429688 28.296875 -13.859375 C 28.648438 -13.285156 28.648438 -12.660156 28.296875 -11.984375 C 27.972656 -11.359375 27.203125 -10.769531 25.984375 -10.21875 C 24.773438 -9.664062 23.425781 -9.238281 21.9375 -8.9375 L 14.171875 -7.3125 L 17.328125 -13.359375 C 17.910156 -14.484375 18.394531 -15.332031 18.78125 -15.90625 C 19.175781 -16.476562 19.585938 -16.898438 20.015625 -17.171875 C 20.441406 -17.453125 20.9375 -17.566406 21.5 -17.515625 C 22.070312 -17.472656 22.800781 -17.257812 23.6875 -16.875 L 23.921875 -17.296875 C 21.816406 -18.265625 20.234375 -19.03125 19.171875 -19.59375 C 17.859375 -20.28125 15.9375 -21.335938 13.40625 -22.765625 L 13.171875 -22.34375 C 14.015625 -21.832031 14.628906 -21.347656 15.015625 -20.890625 C 15.410156 -20.441406 15.625 -19.957031 15.65625 -19.4375 C 15.695312 -18.925781 15.597656 -18.351562 15.359375 -17.71875 C 15.117188 -17.082031 14.703125 -16.191406 14.109375 -15.046875 L 7.875 -3.09375 C 7.289062 -1.976562 6.804688 -1.128906 6.421875 -0.546875 C 6.035156 0.0234375 5.628906 0.441406 5.203125 0.703125 C 4.773438 0.972656 4.265625 1.082031 3.671875 1.03125 C 3.078125 0.976562 2.332031 0.757812 1.4375 0.375 L 1.203125 0.8125 C 3.546875 1.90625 5.304688 2.757812 6.484375 3.375 C 7.722656 4.019531 9.472656 4.988281 11.734375 6.28125 L 11.84375 6.34375 L 12.078125 5.90625 C 11.234375 5.382812 10.609375 4.890625 10.203125 4.421875 C 9.804688 3.960938 9.585938 3.476562 9.546875 2.96875 C 9.515625 2.46875 9.617188 1.890625 9.859375 1.234375 C 10.097656 0.585938 10.507812 -0.289062 11.09375 -1.40625 Z M 13.578125 -6.171875 "/></g></g></g></svg>